<svg xmlns="http://www.w3.org/2000/svg" xmlns:xlink="http://www.w3.org/1999/xlink" viewBox="0 0 146.78 131.59"><defs><linearGradient id="linear-gradient" x1="9.3" y1="-808.84" x2="26.47" y2="-796.4" gradientTransform="matrix(1, 0, 0, -1, 0, -727.84)" gradientUnits="userSpaceOnUse"><stop offset="0" stop-color="#95939c"/><stop offset="1" stop-color="#cfced1"/></linearGradient></defs><g id="Layer_2" data-name="Layer 2"><g id="Layer_1-2" data-name="Layer 1"><path d="M100.57.44a30.76,30.76,0,0,1,3.72-.31c1.93,0,2.47.22,3.75,1.61.08.6-3.78,27.17-4.24,29.58-2.11,11-7.75,17.4-16.8,23.48C94.84,64,97.67,72.31,99,84.22c3,0,6.21-.47,8.72,1.51.53,2.31-.69,3.71-1.71,5.76.36,1.67,1,4,.53,5.63-3.44,11.35-15.7,20.8-25.66,26.3C69.31,129.8,56.32,134,43.33,130.11c-18.44-5.48-31.81-13.26-41.12-30.55C-.45,96.12-.18,89.54.34,85.34,2.32,83.67,6,84.09,8.48,84,10.77,72.55,13.23,62.5,22,54.24c-5.32-3.7-9.92-7.9-13-13.69C4.79,32.44,5.18,24,3.67,15.24,3,11.12.12,6.45,1.36,2.29c.8-.94,1.14-1.65,2.37-2,5-1.6,17,4.9,21.27,7.5C32.25,12.18,45,23.46,46.84,32a4,4,0,0,0,1.46,2.68l1.34,0a25.9,25.9,0,0,0,3.67-4.49c3.31.65,6.72,3.18,9.63,4.89.64-2,1.29-4.06,2.13-6C71.18,14.89,87,5.84,100.57.44Z" fill="#0d0d0d"/><path d="M3,3.06A67.12,67.12,0,0,1,14.24,5.85a49.84,49.84,0,0,1,29,26.05c1.2,4.53,1.54,7-.32,11.54l.64.61,2.28-1.23,1.55.63a25.71,25.71,0,0,0,.26-3.62c0-.73,0-.5.35-1.35L49.31,37l.84.26a11.35,11.35,0,0,0,2.31.44c.15-1.41.34-2.8.55-4.2l1-.72c2,1.68,3.36,5.56,5.69,6.37l.65-2.48c3,2.48,3.83,6.53,6.58,9a65.59,65.59,0,0,1,6.82,3.26,31.31,31.31,0,0,1,4.84,2.25l.47.49A41.73,41.73,0,0,1,91.58,65.09c3.26,6.72,6.33,14.69,4.7,22.27l3.18-.45a14.37,14.37,0,0,1,3.93-.09l.5,1c-.84,1.36-2.47,3.44-2.37,5.08.07,1.22,1.27,1.9,2.14,2.72-.21.55-.44,1.1-.69,1.64-6.42,13.87-19.64,23-33.6,28.11-14.23,5.25-24.77,3.57-38.31-2.76-10-4.67-15-8.86-21.73-17.38-2.06-2.61-4.54-4.74-5.7-7.93.47-2.21.93-2.17,2.72-3.43-.06-2.56-3.19-4-3.75-6.63,2.09-1.28,5.07-.6,7.43-.41a3.49,3.49,0,0,0,.71-.24c1.38-.76,1-6.67,1.31-8.51,1.57-10.36,8.46-19.57,16.69-25.68l0-.66-1-.65-1.49,1a5.36,5.36,0,0,1-4-.82c-6-3.07-11.14-10.81-13-17.09C6,24.09,6.48,13.42,3,3.06Z" fill="#f8f8f8"/><path d="M3,3.06A67.12,67.12,0,0,1,14.24,5.85a49.84,49.84,0,0,1,29,26.05c1.2,4.53,1.54,7-.32,11.54l.64.61,2.28-1.23,1.55.63a25.71,25.71,0,0,0,.26-3.62c0-.73,0-.5.35-1.35,1,2,2.44,4.12,2.57,6.44-1.32.82-1.25.92-2.79.56a21.72,21.72,0,0,1-2.09-.61c-5.51,1.06-10,6.16-13.06,10.59a13.5,13.5,0,0,0-1.67,3.33C31.67,60,31.6,60,33,60.33l.33.46c-1.47,1.38-2.53,1.93-2.94,3.93A8,8,0,0,0,34.8,66.8l-6.19.7-1.33-1.27c0-3.32,1.77-6.24,2.49-9.42.48-2.1,0-2.71-1-4.4l0-.66-1-.65-1.49,1a5.36,5.36,0,0,1-4-.82c-6-3.07-11.14-10.81-13-17.09C6,24.09,6.48,13.42,3,3.06Z" fill="#030203"/><path d="M7.53,10.43C26,23.18,16.65,24.75,24.33,40c1.07,2.13,2.41,4,1.93,6.35l-3.88.74,5.39,4-1.49,1a5.36,5.36,0,0,1-4-.82c-6-3.07-11.14-10.81-13-17.09,1.49,1.51,2.86,3.48,4.91,4.07C9.51,29.6,9.06,20,7.53,10.43Z" fill="#434245"/><path d="M9.23,34.23c1.49,1.51,2.86,3.48,4.91,4.07,2.37,3,4.88,7,8.24,8.8l5.39,4-1.49,1a5.36,5.36,0,0,1-4-.82C16.3,48.25,11.14,40.51,9.23,34.23Z" fill="#a3a2aa"/><path d="M3,3.06A67.12,67.12,0,0,1,14.24,5.85a49.84,49.84,0,0,1,29,26.05,2.47,2.47,0,0,1-.11.36c-.81,2.25-2.35,6.37-4.53,7.34-3.24-4.1-4.69-9.65-7.21-14.24-4.69-8.55-13.42-16.28-22.82-19l-2,.46a6.33,6.33,0,0,0,1,3.62C9.06,20,9.51,29.6,14.14,38.3c-2.05-.59-3.42-2.56-4.91-4.07C6,24.09,6.48,13.42,3,3.06Z" fill="#f0f0f0"/><path d="M8.53,6.35c9.4,2.73,18.13,10.46,22.82,19,2.52,4.59,4,10.14,7.21,14.24,2.18-1,3.72-5.09,4.53-7.34a2.47,2.47,0,0,0,.11-.36c1.2,4.53,1.54,7-.32,11.54l.64.61,2.28-1.23,1.55.63a25.71,25.71,0,0,0,.26-3.62c0-.73,0-.5.35-1.35,1,2,2.44,4.12,2.57,6.44-1.32.82-1.25.92-2.79.56a21.72,21.72,0,0,1-2.09-.61c-5.51,1.06-10,6.16-13.06,10.59a13.5,13.5,0,0,0-1.67,3.33C31.67,60,31.6,60,33,60.33l.33.46c-1.47,1.38-2.53,1.93-2.94,3.93A8,8,0,0,0,34.8,66.8l-6.19.7-1.33-1.27c0-3.32,1.77-6.24,2.49-9.42.48-2.1,0-2.71-1-4.4l0-.66,7.49-4.43C32.73,28.2,23.31,18.17,8.53,6.35Z" fill="#cdcbce"/><path d="M99.46,86.91a14.37,14.37,0,0,1,3.93-.09l.5,1c-.84,1.36-2.47,3.44-2.37,5.08.07,1.22,1.27,1.9,2.14,2.72-.21.55-.44,1.1-.69,1.64-6.42,13.87-19.64,23-33.6,28.11-14.23,5.25-24.77,3.57-38.31-2.76-10-4.67-15-8.86-21.73-17.38-2.06-2.61-4.54-4.74-5.7-7.93.47-2.21.93-2.17,2.72-3.43-.06-2.56-3.19-4-3.75-6.63,2.09-1.28,5.07-.6,7.43-.41,1.42.47,3,.59,4.37,1.11l-2.25.58c-.69,1.75-1.16,2.68-.45,4.57s2.76,3.49,4.09,4.84a74.08,74.08,0,0,0,11.62,10c6,4,14.52,7.28,19.28,12.82l.58,1.26,1.42.28.78-.77a53.62,53.62,0,0,0,8.87-.61c.79-.06,1.57-.12,2.35-.2,10.61-7.63,22.59-12.19,32.39-21.19,2.43-2.23,3.81-3.12,3.91-6.49a8.48,8.48,0,0,1,2-5.51Z" fill="#cdcbce"/><path d="M58.34,121c-1.76,1.5-2.65,2.24-5,2.37a19.27,19.27,0,0,1-3.87-1.76A53.62,53.62,0,0,0,58.34,121Z" fill="#504f53"/><path d="M10,86.84a3.49,3.49,0,0,0,.71-.24c1.38-.76,1-6.67,1.31-8.51,1.57-10.36,8.46-19.57,16.69-25.68,1.07,1.69,1.51,2.3,1,4.4-.72,3.18-2.46,6.1-2.49,9.42l1.33,1.27,6.19-.7A22.18,22.18,0,0,1,45.74,80.86c1,3.45,1.08,7.38-.86,10.52A10.74,10.74,0,0,1,37.54,96c-3.49.63-6.94.21-10.42,1l-1-.5.44-1.79c-2.26-2.33-4.64-4.47-5.82-7.57-2.29.84-3.87,1.55-6.32.74C13,87.43,11.45,87.31,10,86.84Z" fill="#030203"/><path d="M10,86.84a3.49,3.49,0,0,0,.71-.24c1.38-.76,1-6.67,1.31-8.51,1.57-10.36,8.46-19.57,16.69-25.68,1.07,1.69,1.51,2.3,1,4.4-.72,3.18-2.46,6.1-2.49,9.42l1.33,1.27c-3.4,3.59-8.17,7.77-8,13.15.08,2.19.1,4.37.1,6.56-2.29.84-3.87,1.55-6.32.74C13,87.43,11.45,87.31,10,86.84Z" fill="url(#linear-gradient)"/><path d="M33,76.61c1.67-.08,4-.21,5.55.51,1.88.9,3.51,3.62,4.08,5.53a10.12,10.12,0,0,1-1.12,8c-1.29,2.26-3.32,2.72-5.65,3.37-2.68-.16-5.58-.18-7.61-2.21a5.78,5.78,0,0,1-1.51-4.33C26.93,83.11,29.92,79.35,33,76.61Z" fill="#f80c0a"/><path d="M34.47,78.69a2.7,2.7,0,0,1,4.42,2A2.7,2.7,0,0,1,34,82.28,2.71,2.71,0,0,1,34.47,78.69Z" fill="#f8f8f8"/><path d="M66.33,73.72l.66-.31c4-1.87,5.88-5.57,11.06-3.82,2.77.93,5.71,4.77,7.88,6.78l2-1c.43,4.15-.54,9.3-1.35,13.39C85.54,91.09,83.68,93,82.09,95a3.54,3.54,0,0,1,1.09,2.48c-6.54.94-15.4-2.55-20.79-5.89A38.45,38.45,0,0,1,66.33,73.72Z" fill="#030203"/><path d="M75.14,77l.59-1.88a3.84,3.84,0,0,1,4,.72c2.13,1.54,3.62,5,3.76,7.53a12.16,12.16,0,0,1-1.26,5.89c-2.13,3.17-3.68,4.45-7.42,5.6a14.86,14.86,0,0,1-3.12.18c-2-.17-3.16-1.34-4.3-2.86,0-.1-.07-.21-.11-.31a15.77,15.77,0,0,1-1.41-6.11c.1-2.79.77-5.36,2.91-7.28C70.67,76.71,72.73,76.86,75.14,77Z" fill="#f80c0a"/><path d="M75.14,77l.59-1.88a3.84,3.84,0,0,1,4,.72c2.13,1.54,3.62,5,3.76,7.53a12.16,12.16,0,0,1-1.26,5.89C79.43,84.68,79.63,80.51,75.14,77Z" fill="#320505"/><path d="M67.36,92.13a30.37,30.37,0,0,0,7.42,2.68,14.86,14.86,0,0,1-3.12.18C69.65,94.82,68.5,93.65,67.36,92.13Z" fill="#320505"/><path d="M71.07,78.58a2.58,2.58,0,0,1,3.31,3.17,2.56,2.56,0,0,1-2,1.82,2.59,2.59,0,0,1-1.35-5Z" fill="#f8f8f8"/><path d="M79.09,51.68A41.73,41.73,0,0,1,91.58,65.09c3.26,6.72,6.33,14.69,4.7,22.27l-.62.64-2.12.11a17.19,17.19,0,0,1-6.91.7c.81-4.09,1.78-9.24,1.35-13.39l-2,1c-2.17-2-5.11-5.85-7.88-6.78-5.18-1.75-7.1,2-11.06,3.82l-.66.31.06-1.27c6.33-10.21,12.34-1,18.58-4.53,1.34-5.38-4.54-10.14-5.73-15.5Z" fill="#b4b3b7"/><path d="M91.58,65.09c3.26,6.72,6.33,14.69,4.7,22.27l-.62.64-2.12.11C91.68,82.85,89.48,70.14,91.58,65.09Z" fill="#a3a2aa"/><path d="M96.28,87.36l3.18-.45-.46.66a8.48,8.48,0,0,0-2,5.51c-.1,3.37-1.48,4.26-3.91,6.49-9.8,9-21.78,13.56-32.39,21.19-.78.08-1.56.14-2.35.2a53.62,53.62,0,0,1-8.87.61l-.78.77-1.42-.28-.58-1.26c.94-.61,1-.57,1.24-1.64a72.37,72.37,0,0,0-9-11c-.22-1.68-.48-2.12.36-3.64l.7,1.38A19.31,19.31,0,0,0,45.42,108l-1.71.81.8,1c1,3.54,1.68,6.49,5.11,8.44l.38.2c.36.16.73.33,1.11.47,3.15,1.2,5.25.32,8.14-.94,1.94-2.14,2.73-4.46,3.71-7.12,2.07-.53,3.54-1.88,5.19-3.17a25.78,25.78,0,0,1,2-3.73l2.64-.52,1.71.38.06-.59a26.28,26.28,0,0,1,5,.69l-.4.25c3.21-.75,6.16-1.56,8.88-3.51A18.19,18.19,0,0,0,95.66,88Z" fill="#e4e3e5"/><path d="M40,105.91A19.31,19.31,0,0,0,45.42,108l-1.71.81.8,1a4.22,4.22,0,0,1-1.53-.31C41.12,108.79,40.68,107.61,40,105.91Z" fill="#120f10"/><path d="M54.49,101.82c-.61-.44-1.21-.89-1.83-1.32-1.23-.83-2.81-1.61-3.58-2.92s-.6-1.87-.24-3.4A5.89,5.89,0,0,1,50.63,93a10.11,10.11,0,0,1,7.37.67c1.47.92,1.36,1.3,1.64,2.9-1,2.07-2.23,2.67-4.2,3.71l-.74.39c.73,3.59,4.61,5.24,6.93,8.09L63,110.92c-1,2.66-1.77,5-3.71,7.12-2.89,1.26-5,2.14-8.14.94-.38-.14-.75-.31-1.11-.47l-.38-.2c-3.43-2-4.09-4.9-5.11-8.44l-.8-1,1.71-.81C48.52,106.16,51.49,103.88,54.49,101.82Z" fill="#030203"/><path d="M50,118.51c-.79-1.86-1-1.86-.25-3.87a6.06,6.06,0,0,1,3.7-1.91A6.2,6.2,0,0,1,58,114.16c1.29,1,1.06,2.3,1.27,3.88-2.89,1.26-5,2.14-8.14.94C50.73,118.84,50.36,118.67,50,118.51Z" fill="#e91213"/><path d="M61.63,108.77c-2.32-2.85-6.2-4.5-6.93-8.09,4.41,2.38,7.42,4.1,12.45,2.3a16.32,16.32,0,0,0,2.9-1.44,6.24,6.24,0,0,1,2.76,2l-2.64.52a25.78,25.78,0,0,0-2,3.73C66.5,109,65,110.39,63,110.92Z" fill="#cdcbce"/><path d="M61.63,108.77a55.89,55.89,0,0,1,6.52-1C66.5,109,65,110.39,63,110.92Z" fill="#888791"/><path d="M33,60.33a8.08,8.08,0,0,1,6.5.21c1.55.79,2.18,2.08,2.85,3.6l-.18,1.7c-3.28-1.22-5.29-4.47-8.84-5.05Z" fill="#030203"/><path d="M72.48,59.27a12.63,12.63,0,0,1,2.44,1.07,6,6,0,0,1-1.42,1.28,44.16,44.16,0,0,0-5.92,4.92c-1.19.4-1,.3-2-.14a4.87,4.87,0,0,1,.22-1.23C66.84,62.35,70,60.59,72.48,59.27Z" fill="#030203"/><path d="M102.94,2.75l1.57,1a9.92,9.92,0,0,1-1.86,1.15l-2.27,1.83c.51,1.09.83,1.16.41,2.39-1,2.94-5.26,4.35-7.21,6.68C91.46,18.36,86,30.75,85.39,34.08c-.41,2.24.8,4.41.6,6.41-.36,3.52-6.24,6.64-7.37,10.7a31.31,31.31,0,0,0-4.84-2.25A65.59,65.59,0,0,0,67,45.68C66.07,39.26,65.6,35,68.39,28.92,75.41,15,88.93,7.78,102.94,2.75Z" fill="#f8f8f8"/><path d="M100.38,6.75c.51,1.09.83,1.16.41,2.39-1,2.94-5.26,4.35-7.21,6.68C91.46,18.36,86,30.75,85.39,34.08c-.41,2.24.8,4.41.6,6.41-.36,3.52-6.24,6.64-7.37,10.7a31.31,31.31,0,0,0-4.84-2.25c1.46-12.43,6.78-22.71,15.27-31.77,2.57-2.75,6-5.6,8-8.73l.5-.8Z" fill="#030203"/><path d="M68.39,28.92c1.5,1.89,1.69,7.64,2.23,10.24l.92.33c4-5.73,6.57-12.44,10.58-18.22C85.21,16.82,92,8.64,97.58,7.64l-.5.8c-2,3.13-5.46,6-8,8.73-8.49,9.06-13.81,19.34-15.27,31.77A65.59,65.59,0,0,0,67,45.68C66.07,39.26,65.6,35,68.39,28.92Z" fill="#cdcbce"/><path d="M102.94,2.75l2.06.14c.63,2.24-3.61,26.47-4.61,30.18a37.06,37.06,0,0,1-3.57,8.41l-.26.45a17.42,17.42,0,0,1-4.66,1.48,32.14,32.14,0,0,0,4.42-7.33c1.65-3.79,7.55-28.16,6.33-31.16a9.92,9.92,0,0,0,1.86-1.15Z" fill="#cdcbce"/><path d="M91.9,43.41a17.42,17.42,0,0,0,4.66-1.48c-2.3,3.55-6.27,9.29-10.74,10.15a4.6,4.6,0,0,1-1.29,0c-.25-1.57,0-1.75,1-3C87.15,46.94,89.82,45.12,91.9,43.41Z" fill="#8e8d91"/><path d="M111.43,25.85a82.49,82.49,0,0,1,4-11c5.12,1.51,9.88,3.15,14.3,6.23-3.49,10.49-10.33,19.77-15.57,29.44-2.47-1-5-2.07-7.39-3.23Q109,36.57,111.43,25.85Z" fill="#f80c0a"/><path d="M111.43,25.85a82.49,82.49,0,0,1,4-11c5.12,1.51,9.88,3.15,14.3,6.23a17.74,17.74,0,0,0-6.64,3.93c-.67.65-1.35,1.29-2,2-2.81.35-5.85,1.1-8.58.13Z" fill="#fc182e"/><path d="M127.72,39.74c0-.09,0-.19.06-.29,1.27-4.07,3.7-12.24,7.53-14.17a5.71,5.71,0,0,1,4.55,0c2.17.83,5.79,4.26,6.7,6.46.51,1.25,0,1.83-.46,3-5,8.8-11,16.24-17.26,24.2l-7.19-4.2C123.64,49.74,125.48,44.59,127.72,39.74Z" fill="#f30a0e"/><path d="M127.72,39.74a14.91,14.91,0,0,0,.51,5.53c6,3,11.44-8.65,17.22-10.4l.65-.18c-5,8.8-11,16.24-17.26,24.2l-7.19-4.2C123.64,49.74,125.48,44.59,127.72,39.74Z" fill="#de0807"/><path d="M104.26,53.24A5.64,5.64,0,1,1,102.42,61,5.63,5.63,0,0,1,104.26,53.24Z" fill="#f80c0a"/><path d="M118.39,60a5.57,5.57,0,1,1-3.13,4.68A5.56,5.56,0,0,1,118.39,60Z" fill="#de0807"/></g></g></svg>