<svg xmlns="http://www.w3.org/2000/svg" xmlns:xlink="http://www.w3.org/1999/xlink" viewBox="0 0 231.34 191.52"><defs><linearGradient id="linear-gradient" x1="49.45" y1="816.44" x2="75.81" y2="845.69" gradientTransform="matrix(1, 0, 0, -1, 0, 875.29)" gradientUnits="userSpaceOnUse"><stop offset="0" stop-color="#d6d4d7"/><stop offset="1" stop-color="#fff"/></linearGradient><linearGradient id="linear-gradient-2" x1="40.08" y1="823.57" x2="49.46" y2="825.9" gradientTransform="matrix(1, 0, 0, -1, 0, 875.29)" gradientUnits="userSpaceOnUse"><stop offset="0" stop-color="#28282c"/><stop offset="1" stop-color="#464445"/></linearGradient><linearGradient id="linear-gradient-3" x1="136.04" y1="798.77" x2="147.39" y2="801.36" gradientTransform="matrix(1, 0, 0, -1, 0, 875.29)" gradientUnits="userSpaceOnUse"><stop offset="0" stop-color="#c7c5cb"/><stop offset="1" stop-color="#ebebeb"/></linearGradient></defs><g id="Layer_2" data-name="Layer 2"><g id="Layer_1-2" data-name="Layer 1"><path d="M64.91,104.48c-22.66-13.16-35.56-39.71-35.84-65,0-3.45-1.1-12.36-2.19-15.27-2.29-6.12-11.09-13.56-11-20.53C20.51-4.52,43.78,3.1,51,5.91a89.38,89.38,0,0,1,49.43,49c2.07,5.17,2.43,17.58,7.68,19,2.09-.93,2.84-2.62,4.15-4.61l1.89-.39.78.34a12.64,12.64,0,0,0,5.45,1.48c5.16-.18,9.08,5.24,12.74,9.09,5.41-41.84,50.4-72.76,91.35-71.66a7.76,7.76,0,0,1,6,3.1c2.58,7.11-8,14.23-9.47,19.78-9.62,36.62-14.35,54.77-49,75.26a46.34,46.34,0,0,1,5.4,7.32c10.69,11.39,12.16,21,12.23,36.17,3.62,0,8.38-.4,11.46,1,2.38,4,.13,4.54-.58,8.9,8,6.06,9.27,7.49,9.11,17.65,6.59.12,15.42.18,21.75,1.52-3.12,2.27-17.86,2.08-22.13,2.13l-.45.75c-5.91,9.69-6.17,5.63-15.63,6.95-2.75.38-5.81,3-9.06,2.75-4.73-.31-7-5.22-11.54-2.93-5.94,2.63-9.79-3.08-12.86-6.84-10.47-.85-23.29-.51-33.93-.5l-53.54.2c-2.17,3.36-3.62,6.3-7.58,7.31-8-1.79-7.73-1.09-15,2.17-2.21,1.91-10.33-2.95-11.26-2.67-12,3.59-12-2.11-16.86-7.05-1-1-17.25.47-21.49-1.55,4.13-2.55,16.29-2.07,21.35-2C21.25,159.89,26,166.1,34,159.1c1.65-4.58-9.41-9.91,9.66-10.34l.15-1.56C45.35,131.05,52.23,115,64.91,104.48Z" fill="#030203"/><path d="M133.08,79.9c5.41-41.84,50.4-72.76,91.35-71.66a7.76,7.76,0,0,1,6,3.1c2.58,7.11-8,14.23-9.47,19.78-9.62,36.62-14.35,54.77-49,75.26a46.34,46.34,0,0,1,5.4,7.32c-2.35-1.66-5.39-5.11-7.47-7.3C183.84,99,201.53,83,208,68.54c6.59-14.68,6.7-32.39,16.42-46,1.93-2.7,5.08-6.7,4.85-9.87a6.44,6.44,0,0,0-5.41-2.92c-37-.41-77.84,25.05-87.51,61.88A94,94,0,0,0,134.44,85c-3.18-4.35-6.77-8.51-10.35-12.54-3.47.67-.42,1.43-3.42,2.56A40.46,40.46,0,0,1,114.11,69l.78.34a12.64,12.64,0,0,0,5.45,1.48C125.5,70.63,129.42,76.05,133.08,79.9Z" fill="#cdcbce"/><path d="M96.08,92.92c7.12-2.59,4.69-2,11.45,1-2.24-6.35-4.16-8.43-2.77-15.61l.74-.75c5,.81,6.46,4.18,9.06,3.58.45-3.24-.48-5.72.78-7.07,3.59,1.78,7.33,6.82,9.68,10l.47-.46-.44-5.08.66-.41C131,83,133.13,91.35,137.87,93.61l1.33-.21a95.07,95.07,0,0,1,12.52,5.88l2.92,1.46c13.26,5.67,26.26,21.06,29.18,35.27a38.23,38.23,0,0,0-3.19-3.88l-.87.46c-.75,4.63-.31,5.46-2.42,9.69-2.23,1.38-3.73,2.23-6.23,1.28.63-1.67,1.18-3.19,1.73-4.9l-.9.58c-2.55.64-2.51,1.11-5-.53-21.24-14-33.48,3.78-36.06,23.59.07,1.23-.18,3.14.71,3.86,8.52,6.79,18.76,6,28.65,4,.55,2.21-.91,2.59-.91,6.41-2.15,1.37-29.38,1.21-32.58.3-1.42-3.12,2.48-4-3.22-6l-2,1.21-.3.63a48.94,48.94,0,0,1-9.82-.38c-.34-.86.08-1.34.47-2.49-3.33,1.36-3.26.73-5,3.29a30.92,30.92,0,0,0,.22,3.6l.33.71c-7.31-.06-28.39.49-34.28-.44a12,12,0,0,1-.64-3.24c2.81-5.3,29.35.3,30.63-10.17-2.23-8.78-.49-13.25-6.67-21.95-6.87-9.68-15-11.48-25.75-6.55-1.58.72-3.61-.37-6.07,1.29,1.16,1.74,1.15,1.18,1.16,3l-1.29.46c-2.8-.46-1.74,0-4-1.93l-1.39,0c.74,2.79,1.14,3.28,2.75,5.71l0,.93c-3.2,1.07-4.34-1.37-5.79.13,3.31,5.48,6.44,7.55,5.46,15.4l-5.25.38-.83.44-4.87-2.65c-5-.37-6,.71-10.26.44-2.6-1.29-3.34-3.62-4.74-6.32a89.15,89.15,0,0,1,12.87,1.36c.19-23.17,8.8-40,28.72-52.5l6.36-3.42C88.86,95.74,89.93,94.47,96.08,92.92Z" fill="#f8f8f8"/><path d="M48.63,153.72c.19-23.17,8.8-40,28.72-52.5-3.19,6.09-5.62,16.11-9.68,22.48-1.43,2.26-.5,4.45,2,5.69-2.4,2.11-5.81,5.16-7.34,7.93l-1.65.56-1.39,0c.74,2.79,1.14,3.28,2.75,5.71l0,.93c-3.2,1.07-4.34-1.37-5.79.13,3.31,5.48,6.44,7.55,5.46,15.4l-5.25.38-.83.44-4.87-2.65c-5-.37-6,.71-10.26.44-2.6-1.29-3.34-3.62-4.74-6.32A89.15,89.15,0,0,1,48.63,153.72Z" fill="#a3a2aa"/><path d="M50.76,158.24c-1.21-1-2.61-1.74-3-3,3.21-.68,6.86.24,7.79-1.06l.07-1.52c2,.6,4.32,4.15,4.66,6.29-1.16,1.05-2.25,1.11-3.79,1.45l-.83.44Z" fill="#f8f8f8"/><path d="M154.64,100.74c13.26,5.67,26.26,21.06,29.18,35.27a38.23,38.23,0,0,0-3.19-3.88l-.87.46c-.75,4.63-.31,5.46-2.42,9.69-2.23,1.38-3.73,2.23-6.23,1.28.63-1.67,1.18-3.19,1.73-4.9l-.9.58c-4.17-5.78-5.41-6.77-12-9.63,6,.39,6.54,1.57,10.43,5.71l1-.4c-.36-5.8-5.13-13.87-5.61-20.13C165.83,114.8,155.3,101.35,154.64,100.74Z" fill="#bebdc2"/><path d="M69.65,129.39c20-7,38.8,17.48,33.58,34.21-2.23-8.78-.49-13.25-6.67-21.95-6.87-9.68-15-11.48-25.75-6.55-1.58.72-3.61-.37-6.07,1.29,1.16,1.74,1.15,1.18,1.16,3l-1.29.46c-2.8-.46-1.74,0-4-1.93l1.65-.56C63.84,134.55,67.25,131.5,69.65,129.39Z" fill="#6f6f78"/><path d="M130.9,162.3c-3.78-16.62,11.72-33.38,29.08-32.69,6.55,2.86,7.79,3.85,12,9.63-2.55.64-2.51,1.11-5-.53C145.72,124.67,133.48,142.49,130.9,162.3Z" fill="#79797f"/><path d="M73.24,177c5.78-.36,11.65-1.91,17.14-1.85,6.09.06,10.21,1.43,16.81,1.58l.33.71C100.21,177.39,79.13,177.94,73.24,177Z" fill="#e4e3e5"/><path d="M111.94,169.85c4.07-.11,7.81-.51,11.61,1l-2,1.21-.3.63a48.94,48.94,0,0,1-9.82-.38C111.13,171.48,111.55,171,111.94,169.85Z" fill="#434245"/><path d="M111.47,172.34c4-1.92,6.16-1.54,10.12-.25l-.3.63A48.94,48.94,0,0,1,111.47,172.34Z" fill="#cdcbce"/><path d="M80,117.68c4.32-.45,8.26-.2,12.13,2,4.3,2.45,6.28,6.07,7.49,10.73C92,129.06,87.57,120.55,80,117.68Z" fill="#030203"/><path d="M146.82,119.26a15.57,15.57,0,0,1,5.89.18c-2.1,3.22-8.65,6.91-11.87,9.66a10.17,10.17,0,0,1-4.1,1.6l-.81-1a7.15,7.15,0,0,1,.3-1.33C138,123.82,142.6,121.06,146.82,119.26Z" fill="#030203"/><path d="M39.08,67.07C32.9,54.64,34.94,32.5,28.63,19.26,26.69,15.2,22.66,9.84,20,5.8l.61-.8C27.36,2.9,41.79,7,48.1,9.61,71,19.24,85.89,34.33,95.67,56.9c3.3,9.83,5.34,18.57,3,29-.52,2.35-2.59,5.79-2.64,7-6.15,1.55-7.22,2.82-12.37,4.88C82.11,68.72,71,45,50.38,24.61c-5-4.87-14.88-13.08-21.78-13.88a77.44,77.44,0,0,1,4.17,7.15c4.92,1,9.64,5.5,12,9.79L43.4,26.48C49.85,36.14,58.51,52.78,60.79,64l-1.32,1.11.19.32L61,65,61,67.12c-5.28-4.56-4-12.8-9-13.44l-.94-.18c.2,5.14,7.19,24.18,7.19,24.17L57.17,77c-2.5-.9-8.17-4-9-4.08l.49.16c1.53,3.88,4.57,6.42,5.67,10.74a95.64,95.64,0,0,0,7,7.78c2.34,1.89,9.22,7,10.24,9.2-1.37,2.07-.45,1.41-2.85,2-1.35-1-3.76-2.69-4.69-3.93C53.66,91.39,43.55,79.13,39.08,67.07Z" fill="url(#linear-gradient)"/><path d="M50.38,18A98.87,98.87,0,0,1,83.13,63.44C84,66,84.58,71,85.32,72.69c2.4,5.6,4.46,9.32,3.74,15.82l1.13,1.9.93-.32C93,83.9,93.88,59.38,95.67,56.9c3.3,9.83,5.34,18.57,3,29-.52,2.35-2.59,5.79-2.64,7-6.15,1.55-7.22,2.82-12.37,4.88C82.11,68.72,71,45,50.38,24.61Z" fill="#bebdc2"/><path d="M32.77,17.88c4.92,1,9.64,5.5,12,9.79L43.4,26.48C49.85,36.14,58.51,52.78,60.79,64l-1.32,1.11.19.32L61,65,61,67.12c-5.28-4.56-4-12.8-9-13.44l-.94-.18c.2,5.14,7.19,24.18,7.19,24.17L57.17,77c-2.5-.9-8.17-4-9-4.08l.49.16c1.53,3.88,4.57,6.42,5.67,10.74C47.71,77.33,44,67,40.54,58.46c-1.87-9.3-2.7-16.7-3.72-26.1A105.26,105.26,0,0,0,32.77,17.88Z" fill="url(#linear-gradient-2)"/><path d="M32.77,17.88c4.92,1,9.64,5.5,12,9.79L43.4,26.48C49.85,36.14,58.51,52.78,60.79,64l-1.32,1.11.19.32L61,65,61,67.12c-5.28-4.56-4-12.8-9-13.44-3.31-11.85-4.34-17-12.41-26.5l-1.46-1.32c-1.24,1.64-.88,4-1.39,6.5A105.26,105.26,0,0,0,32.77,17.88Z" fill="#1c1c1e"/><path d="M39.67,27.18c8.07,9.53,9.1,14.65,12.41,26.5l-.94-.18c.2,5.14,7.19,24.18,7.19,24.17L57.17,77C49.76,66.67,47.06,51.38,43.85,39.36,43,36.11,40.84,30.89,39.67,27.18Z" fill="#28282a"/><path d="M39.08,67.07c.87-1.64-2.79-15.84-3.54-18.38l.72-.74,1.17.92a49.47,49.47,0,0,0,2,9.65l1.15-.06C44,67,47.71,77.33,54.34,83.83a95.64,95.64,0,0,0,7,7.78c2.34,1.89,9.22,7,10.24,9.2-1.37,2.07-.45,1.41-2.85,2-1.35-1-3.76-2.69-4.69-3.93C53.66,91.39,43.55,79.13,39.08,67.07Z" fill="#b4b3b7"/><path d="M61.37,91.61c2.34,1.89,9.22,7,10.24,9.2-1.37,2.07-.45,1.41-2.85,2-1.35-1-3.76-2.69-4.69-3.93L65,98c-.08-2.09-1.84-3.23-3.39-5.93Z" fill="#888791"/><path d="M28.6,10.73c-1-1.12-1.21-1.09-1.56-2.54,5.19-2.3,19.19,6.9,23.34,9.8v6.62C45.35,19.74,35.5,11.53,28.6,10.73Z" fill="#a3a2aa"/><path d="M146.26,56.58c11.24-25.6,49.12-43.77,76.21-44-5.39,3.87-6.85,2.37-12.19,4.57l6.54.58c-29.34,12.44-63.69,48.36-65.1,81.51A95.07,95.07,0,0,0,139.2,93.4l-1.33.21c.33-1.4,0-6.51,0-8.54C137.91,75.87,140.63,64.11,146.26,56.58Z" fill="#f8f8f8"/><path d="M210.28,17.19l6.54.58c-29.34,12.44-63.69,48.36-65.1,81.51A95.07,95.07,0,0,0,139.2,93.4c3.76-3.43,2.62-5.73,2.45-10.73l.9,1.24-.89-.72.23-.62a22.39,22.39,0,0,1,2.36,6c-.16,2.31-.4,4,.76,5.71,1.7-1.73,4-12.43,5.18-15.69C162.08,46.94,182,31.49,210.28,17.19Z" fill="#a3a2aa"/><path d="M146.26,56.58l.7,1.09c-1.32,2.75-.07,8.23.09,11.61,1-1.63,1.74-3.49,3.23-4.18.76,2.27-3.77,21.81-5.32,24.22l-.71-.76a22.39,22.39,0,0,0-2.36-6l-.23.62.89.72-.9-1.24c.17,5,1.31,7.3-2.45,10.73l-1.33.21c.33-1.4,0-6.51,0-8.54C137.91,75.87,140.63,64.11,146.26,56.58Z" fill="url(#linear-gradient-3)"/><path d="M222.47,12.62c2.95.57,2.39,0,3.85,1.83-.81,3.23-5.31,7.08-7.91,12.26-7.54,15-8.39,37.91-19.34,50.49-5.87,9-16.08,16.54-24.63,22.77-1.14.33-1.93.46-3.08.69l-2.12-2.37c4.53-3.12,7.58-5.38,11.87-8.87l-.32-1.2c-1.59.16-2.74.32-4.32.59l-.42-1.13,1.11-2.44a9.56,9.56,0,0,0-2.27.05c.21-9.12,4-10.54,7.59-18,4.68-9.78,7.23-21.13,14.26-29.69,5-6.09,10.27-11.92,18.39-13,1.43-2.17,3.73-4.82,3.83-7l-2.14.14-6.54-.58C215.62,15,217.08,16.49,222.47,12.62Z" fill="#28282a"/><path d="M222.47,12.62c2.95.57,2.39,0,3.85,1.83-.81,3.23-5.31,7.08-7.91,12.26-7.54,15-8.39,37.91-19.34,50.49-5.87,9-16.08,16.54-24.63,22.77-1.14.33-1.93.46-3.08.69l-2.12-2.37c4.53-3.12,7.58-5.38,11.87-8.87l3-2.49c26.28-25.37,18-35.05,31-62.28,1.43-2.17,3.73-4.82,3.83-7l-2.14.14-6.54-.58C215.62,15,217.08,16.49,222.47,12.62Z" fill="#cdcbce"/><path d="M184.14,86.93c-.2.6-.45,2.67-.56,3.41,3.14-1.1,11.52-10.24,15.49-13.14-5.87,9-16.08,16.54-24.63,22.77-1.14.33-1.93.46-3.08.69l-2.12-2.37c4.53-3.12,7.58-5.38,11.87-8.87Z" fill="#8e8d91"/><path d="M189.56,70.33c4.38-7.41,12.24-27.85,15.73-31.23l.39,1.46-1.74-.06.81-1,.94.49c-.49,5.88-3.84,19.28-7.37,23.93-2.3,2.51-4.41,5.68-7.19,6.95Z" fill="#504f53"/><path d="M189.56,70.33l1.57.52c2.78-1.27,4.89-4.44,7.19-6.95-2.2,5.9-10.17,14.85-16.18,16.67l-.2-.86C183,78.22,188.55,70.91,189.56,70.33Z" fill="#434245"/><path d="M24.26,176.15c.5-4.74,1.87-12.07,7.88-11.62,10.42.78,13-9.71,22.81-.88,1.3,1.16,6-.44,7.66-.93,4,1.35,5.41,4.67,7.46,8.45.31,6.08-.25,13.18-7.47,15-6.78-1.3-5.35-6.7-5-12.25-.44-1.93-.49-4-1.76-5-.81,2.58-.5,4-.29,6.65-.39,17.72-16.65,16.12-17.09.43l-.78-1.78c-2.29,1.46,2.26,10.33-2.65,12.53C28.51,186.52,25.15,182.11,24.26,176.15Z" fill="#f8f8f8"/><path d="M55.53,175.56c-.39,17.72-16.65,16.12-17.09.43C45.63,183.65,49.28,184.91,55.53,175.56Z" fill="#888791"/><path d="M38.38,164.71c.21,3.07.82,8.5.06,11.28l-.78-1.78c-2.29,1.46,2.26,10.33-2.65,12.53-6.5-.22-9.86-4.63-10.75-10.59,2.83,1.85,5.14,3.73,8.48,4.08C37.75,178.7,37,170.14,38.38,164.71Z" fill="#8e8d91"/><path d="M70.07,171.17c.31,6.08-.25,13.18-7.47,15-6.78-1.3-5.35-6.7-5-12.25.66,4.36.18,4.84,4.35,6.42C66.84,179.7,69,175.52,70.07,171.17Z" fill="#888791"/><path d="M174.73,172c-1.48,14-.41,4.38-5.73,12.13a13.83,13.83,0,0,1,3.83,1.24l-.72.62c-15,.77-10-27.41,1.49-22.52,6.78,2.88,5.15-3.62,11-2.82,7.46,1,6.31,4.91,15.51,4l.52-.06c2.86,1.45,3.67,2.88,5.56,5.39,1.68,7.8-1.21,19.63-10.81,15.37-1.67-2.24-1.86-3.44-.65-6.24,0-2.26-.14-4.87-.23-7.16-2,3.34-.52,10.77-4.61,14.23-10.7,9.06-13.9-6-14.13-13.69Z" fill="#f8f8f8"/><path d="M174.73,172c.53-2,.33-2.67,1.58-3.77.67,5.72.72,13.61,8.56,14.48,5.53-1.43,7.33-8.39,8.49-13.27l.94.31.15,2.18c-2,3.34-.52,10.77-4.61,14.23-10.7,9.06-13.9-6-14.13-13.69Z" fill="#8e8d91"/><path d="M194.68,179.06l2.36,1.2c6.65-.23,7-4.6,9.1-10.33,1.68,7.8-1.21,19.63-10.81,15.37C193.66,183.06,193.47,181.86,194.68,179.06Z" fill="#8e8d91"/><path d="M79.33,143.33c3.2-.3,6.45-.71,9.44.78a15.36,15.36,0,0,1,7.33,8.66,12.78,12.78,0,0,1-.74,10.39c-2,3.53-5.37,4.45-9,5.48a34.21,34.21,0,0,1-5.45-.18,11,11,0,0,1-7.79-4.6,12.69,12.69,0,0,1-1.94-10.39C72.34,148.54,75.18,145.9,79.33,143.33Z" fill="#c10403"/><path d="M81.73,148.41A4.27,4.27,0,1,1,90,150.57c-.17,3.81.15,6.87-2.58,9.58C81.86,161.18,79.11,152.22,81.73,148.41Z" fill="#f80c0a"/><path d="M81.73,148.41a4.27,4.27,0,1,1,3.08,5.08A4.29,4.29,0,0,1,81.73,148.41Z" fill="#f0f0f0"/><path d="M75.42,160.49c4.22,3.1,12.57,3.86,13.4,4.73a11.75,11.75,0,0,1-7.42.64C78.4,165,76.83,163.12,75.42,160.49Z" fill="#faa492"/><path d="M138.63,152.91c6.08-13.28,21-10.4,24,.19a12.71,12.71,0,0,1-1.41,10c-4.61,7.54-15.08,7.3-21.69,2.81a28.79,28.79,0,0,1-2.91-2.27C139.5,160.88,138.86,156.79,138.63,152.91Z" fill="#c10403"/><path d="M147.21,146.36a4.14,4.14,0,1,1-2.82,5.08A4.14,4.14,0,0,1,147.21,146.36Z" fill="#f0f0f0"/><path d="M157.88,161.47a2.77,2.77,0,0,1-.41,1.34,7.68,7.68,0,0,1-5,3.34c-4.18.85-7.16-.15-10.56-2.4v-.85c1.74.17,3.1,1.18,4.76,1.64C150.89,165.69,154.45,163.54,157.88,161.47Z" fill="#faa492"/><path d="M177.34,142.28c2.11-4.23,1.67-5.06,2.42-9.69l.87-.46a38.23,38.23,0,0,1,3.19,3.88,19.87,19.87,0,0,1,1.52,6.25c.84,4.17,1.28,8.3-.43,12.34l.64,0c3.69-.49,9-1.59,12.42-.56l.41,1c-1.66,2.27-2.42,3.72-5,4.85-3.94.11-6.29-1.76-8.93-1.63-5.51.28-6.3,4.11-12.28,1.57l.1-.86C173.84,151.53,176,147.74,177.34,142.28Z" fill="#a3a2aa"/><path d="M185.55,154.57c3.69-.49,9-1.59,12.42-.56l.41,1c-1.66,2.27-2.42,3.72-5,4.85-3.94.11-6.29-1.76-8.93-1.63-5.51.28-6.3,4.11-12.28,1.57l.1-.86C178.48,152.19,177.73,156.87,185.55,154.57Z" fill="#e4e3e5"/><path d="M182.62,138.07l2.72,4.19c.84,4.17,1.28,8.3-.43,12.34l-2.41-.51C180.24,151,182.08,142.13,182.62,138.07Z" fill="#888791"/><path d="M136.59,163.6C131,154.53,139.13,142,149,139.42c-3,4.33-13.09,6.84-10.35,13.49C138.86,156.79,139.5,160.88,136.59,163.6Z" fill="#710708"/><path d="M174.44,100c-3.77,3-4.69,4.5-9.41,4.08l-.76-1.1c1.29-2.87,2-2.66,5-4.66l2.12,2.37C172.51,100.43,173.3,100.3,174.44,100Z" fill="#79797f"/><path d="M77.92,138.38a20.47,20.47,0,0,1,8.14.06l.34.79-1.05.19c-2.28.11-6.75.87-8.65-.13Z" fill="#320505"/><path d="M86.25,139.28a11.28,11.28,0,0,1,3.1.55c3.42,1.19,5.07,3.34,6.67,6.46C92.56,144.55,90,141.14,86.25,139.28Z" fill="#6f0404"/><path d="M149,139.42l2.29-.89,1.2.8-1.55.79Z" fill="#4f0404"/></g></g></svg>